<svg xmlns="http://www.w3.org/2000/svg" width="76" height="37" fill="none"><path fill="#AC23AB" d="M22.618 1.82c-1.455.736-4.043 2.674-5.66 4.412-6.47 6.617-10.297 8.957-15.04 8.957-2.05.067-2.319.133-1.456.802 1.617 1.136 7.924.2 10.943-1.671 1.402-.936 4.205-3.342 6.2-5.347 5.984-6.083 12.021-7.888 17.843-5.415 2.318 1.003 2.75.936 5.283-.066 5.822-2.407 11.645-.535 17.682 5.748 4.583 4.746 7.979 6.684 12.669 7.085 2.641.268 4.043.134 4.312-.4.27-.469-.27-.736-1.67-.736-3.882 0-8.249-2.406-13.208-7.286C53.939 1.486 52.699.818 46.876.818c-3.665 0-5.336.334-6.9 1.27-1.994 1.203-2.048 1.203-4.635-.2C31.89.082 26.39.015 22.618 1.82"/><path fill="#AC23AB" d="M26.23 13.25c-1.833.669-3.881 3.877-3.881 6.083 0 3.476 2.695 6.484 7.817 8.89 2.641 1.203 5.013 3.61 6.846 7.018.916 1.605.97 1.605 1.563.401 1.833-3.743 4.528-6.416 8.032-8.087 5.984-2.808 8.087-7.62 5.337-11.898-2.048-3.275-7.978-3.877-12.021-1.337-1.402.936-1.833.869-5.014-.401-3.665-1.47-5.822-1.671-8.679-.668m9.057 2.474c2.318 1.136 2.534 1.136 5.121-.067 4.96-2.34 10.512-.468 10.512 3.542 0 2.34-2.75 5.414-5.876 6.618-1.94.668-5.93 5.147-6.684 7.486-.27.735-.432.735-.917-.2-1.779-3.476-3.881-5.615-7.385-7.62-5.822-3.343-7.008-6.818-3.235-9.692 2.103-1.538 5.23-1.605 8.464-.067"/><path fill="#AC23AB" d="M10.543 28.891c-3.397 1.204-7.71 3.744-7.979 4.813-.108.401 1.51 0 3.666-.936 7.924-3.275 16.765-3.342 23.99-.2 1.724.735 3.395 1.337 3.719 1.337 1.132-.067-2.049-2.674-5.014-4.078-4.043-1.938-14.016-2.406-18.382-.936m38.221.268c-3.72 1.47-8.032 4.21-7.224 4.545.378.134 2.103-.334 3.935-1.136 8.626-3.61 18.168-3.008 27.17 1.67.54.268.917.201.917-.267 0-1.002-4.636-3.81-8.464-5.013-4.474-1.47-12.507-1.337-16.334.2"/></svg>