<svg width="76" height="37" viewBox="0 0 76 37" fill="none" xmlns="http://www.w3.org/2000/svg">
<path d="M22.6182 1.82057C21.1627 2.55583 18.5751 4.49423 16.9579 6.23211C10.4889 12.8494 6.66138 15.1889 1.91746 15.1889C-0.131058 15.2557 -0.4006 15.3225 0.461932 15.991C2.07918 17.1273 8.38645 16.1915 11.4053 14.3199C12.8069 13.3841 15.6102 10.9779 17.6048 8.97261C23.5886 2.89003 29.6263 1.08531 35.4484 3.55845C37.7664 4.56107 38.1977 4.49423 40.7314 3.49161C46.5535 1.08531 52.3756 2.95687 58.4133 9.23997C62.9955 13.9857 66.3917 15.9241 71.0817 16.3252C73.7233 16.5925 75.1249 16.4589 75.3944 15.9241C75.6639 15.4562 75.1249 15.1889 73.7233 15.1889C69.8419 15.1889 65.4753 12.7826 60.5157 7.90314C53.9389 1.48636 52.699 0.817946 46.8769 0.817946C43.2112 0.817946 41.54 1.15216 39.9767 2.08794C37.9821 3.29108 37.9282 3.29108 35.3406 1.88741C31.8904 0.0826912 26.3918 0.0158482 22.6182 1.82057Z" fill="#AC23AB"/>
<path d="M26.2302 13.2505C24.3973 13.9189 22.3488 17.1273 22.3488 19.3331C22.3488 22.8088 25.0442 25.8167 30.1655 28.223C32.807 29.4261 35.179 31.8324 37.0119 35.2413C37.9283 36.8455 37.9822 36.8455 38.5752 35.6424C40.4081 31.8993 43.1035 29.2256 46.6075 27.5546C52.5913 24.7472 54.6938 19.9346 51.9444 15.6568C49.8959 12.3815 43.966 11.78 39.9229 14.3199C38.5213 15.2557 38.09 15.1889 34.9094 13.9189C31.2437 12.4484 29.0873 12.2479 26.2302 13.2505ZM35.2868 15.7236C37.6048 16.8599 37.8205 16.8599 40.4081 15.6568C45.3676 13.3173 50.9202 15.1889 50.9202 19.1994C50.9202 21.5388 48.1709 24.6135 45.0442 25.8167C43.1035 26.4851 39.1143 30.9635 38.3596 33.3029C38.09 34.0382 37.9283 34.0382 37.4431 33.1024C35.6641 29.6266 33.5617 27.4877 30.0577 25.4825C24.2356 22.1404 23.0496 18.6646 26.8232 15.7905C28.9256 14.2531 32.0523 14.1863 35.2868 15.7236Z" fill="#AC23AB"/>
<path d="M10.5426 28.8914C7.14634 30.0946 2.83368 32.6346 2.56413 33.704C2.45632 34.1051 4.07357 33.704 6.2299 32.7682C14.1544 29.493 22.9954 29.4262 30.2191 32.5677C31.9441 33.303 33.6153 33.9045 33.9387 33.9045C35.0708 33.8377 31.8902 31.2309 28.9253 29.8272C24.8822 27.8888 14.9091 27.4209 10.5426 28.8914Z" fill="#AC23AB"/>
<path d="M48.7639 29.1587C45.0442 30.6292 40.7316 33.3697 41.5402 33.7039C41.9176 33.8376 43.6426 33.3697 45.4755 32.5676C54.1008 28.9582 63.6426 29.5597 72.6453 34.2386C73.1843 34.506 73.5617 34.4392 73.5617 33.9713C73.5617 32.9687 68.9256 30.1613 65.0981 28.9582C60.6237 27.4877 52.5914 27.6213 48.7639 29.1587Z" fill="#AC23AB"/>
</svg>
